<svg width="35" height="35" viewBox="0 0 35 35" fill="none" xmlns="http://www.w3.org/2000/svg">
<g id="Property 1=4">
<path id="Vector" d="M17.5008 0.00488281C7.875 0.00488281 0 7.87988 0 17.5057C0 27.1315 7.875 35.0065 17.5008 35.0065C27.1266 35.0065 35.0016 27.1315 35.0016 17.5057C35.0016 7.87988 27.1266 0.00488281 17.5008 0.00488281ZM7.5 12.5065C7.5 11.1307 8.625 10.0057 10.0008 10.0057C11.3766 10.0057 12.5016 11.1307 12.5016 12.5065C12.5016 13.8823 11.3766 15.0073 10.0008 15.0073C8.625 15.0049 7.5 13.8799 7.5 12.5065ZM25.875 25.1299C23.625 27.3799 20.5008 28.6291 17.5008 28.6291C14.5008 28.6291 11.3766 27.5041 9.1266 25.1299C8.62738 24.6307 8.62738 23.8807 9.1266 23.3791C9.62582 22.8799 10.3758 22.8799 10.8774 23.3791C14.5032 27.0049 20.5032 27.0049 24.1266 23.3791C24.6258 22.8799 25.3758 22.8799 25.8774 23.3791C26.3766 23.8806 26.3766 24.6306 25.8751 25.1299H25.875ZM25.0008 15.0049C23.625 15.0049 22.5 13.8799 22.5 12.5041C22.5 11.1283 23.625 10.0033 25.0008 10.0033C26.3766 10.0033 27.5016 11.1283 27.5016 12.5041C27.5016 13.8799 26.3766 15.0049 25.0008 15.0049Z" fill="black"/>
</g>
</svg>
