<svg width="35" height="35" viewBox="0 0 35 35" fill="none" xmlns="http://www.w3.org/2000/svg">
<g id="Property 1=2">
<g id="Vector">
<path d="M17.5008 0.00195312C7.875 0.00195312 0 7.87695 0 17.5028C0 27.1285 7.875 35.0035 17.5008 35.0035C27.1266 35.0035 35.0016 27.1285 35.0016 17.5028C35.0016 7.87695 27.1266 0.00195312 17.5008 0.00195312ZM7.5 12.5036C7.5 11.1278 8.625 10.0028 10.0008 10.0028C11.3766 10.0028 12.5016 11.1278 12.5016 12.5036C12.5016 13.8794 11.3766 15.0043 10.0008 15.0043C8.625 15.002 7.5 13.877 7.5 12.5036ZM25.0008 15.002C23.625 15.002 22.5 13.877 22.5 12.5012C22.5 11.1254 23.625 10.0003 25.0008 10.0003C26.3766 10.0003 27.5016 11.1254 27.5016 12.5012C27.5016 13.877 26.3766 15.002 25.0008 15.002Z" fill="black"/>
<path d="M17.5006 21.0017C20.5006 21.0017 23.6248 22.2509 25.8748 24.5009C26.3763 25.0002 26.3764 25.7501 25.8772 26.2517C25.3756 26.7509 24.6256 26.7509 24.1264 26.2517C20.503 22.6259 14.503 22.6259 10.8772 26.2517C10.3756 26.7509 9.62558 26.7509 9.12637 26.2517C8.62715 25.7501 8.62715 25.0001 9.12637 24.5009C11.3764 22.1267 14.5006 21.0017 17.5006 21.0017Z" fill="#F8F8F8"/>
</g>
</g>
</svg>
