<svg width="35" height="35" viewBox="0 0 35 35" fill="none" xmlns="http://www.w3.org/2000/svg">
<g id="Property 1=6">
<path id="Vector" d="M17.5008 0.0078125C7.875 0.0078125 0 7.88281 0 17.5086C0 27.1344 7.875 35.0094 17.5008 35.0094C27.1266 35.0094 35.0016 27.1344 35.0016 17.5086C35.0016 7.88281 27.1266 0.0078125 17.5008 0.0078125ZM7.5 12.5094C7.5 11.1336 8.625 10.0086 10.0008 10.0086C11.3766 10.0086 12.5016 11.1336 12.5016 12.5094C12.5016 13.8852 11.3766 15.0102 10.0008 15.0102C8.625 15.0079 7.5 13.8829 7.5 12.5094ZM25.875 25.1328C23.625 27.3828 20.5008 28.632 17.5008 28.632C14.5008 28.632 11.3766 27.507 9.1266 25.1328C8.62738 24.6336 8.62738 23.8836 9.1266 23.382H10.8774C10.8774 23.382 15.0955 23.508 17.501 23.5085C19.9078 23.5091 20.501 23.5085 24.1266 23.382C25.1451 23.3465 25.8774 23.382 25.8774 23.382C26.3766 23.8836 26.3766 24.6335 25.875 25.1328ZM25.0008 15.0078C23.625 15.0078 22.5 13.8828 22.5 12.507C22.5 11.1312 23.625 10.0062 25.0008 10.0062C26.3766 10.0062 27.5016 11.1312 27.5016 12.507C27.5016 13.8828 26.3766 15.0078 25.0008 15.0078Z" fill="black"/>
</g>
</svg>
